<svg xmlns="http://www.w3.org/2000/svg" version="1.1" xmlns:xlink="http://www.w3.org/1999/xlink" width="512" height="512" x="0" y="0" viewBox="0 0 25 25" style="enable-background:new 0 0 512 512" xml:space="preserve" class=""><g><path d="M14.329 19.677H6.22a2.5 2.5 0 0 1-2.5-2.5V5.457a2.5 2.5 0 0 1 2.5-2.5h9.6a2.5 2.5 0 0 1 2.5 2.5v9.52a.5.5 0 0 1-1 0v-9.52a1.484 1.484 0 0 0-1.5-1.5h-9.6a1.484 1.484 0 0 0-1.5 1.5v11.72a1.484 1.484 0 0 0 1.5 1.5h8.109a.5.5 0 0 1 0 1z" fill="#000000" opacity="1" data-original="#000000" class=""></path><path d="M14.565 7.562H7.474a.5.5 0 0 1 0-1h7.091a.5.5 0 0 1 0 1zM14.565 10.4H7.474a.5.5 0 1 1 0-1h7.091a.5.5 0 0 1 0 1zM14.565 13.236H7.474a.5.5 0 0 1 0-1h7.091a.5.5 0 1 1 0 1zM12.939 16.077H7.47a.5.5 0 0 1 0-1h5.469a.5.5 0 0 1 0 1zM17.5 22.043a3.781 3.781 0 1 1 3.78-3.781 3.785 3.785 0 0 1-3.78 3.781zm0-6.561a2.781 2.781 0 1 0 2.78 2.78 2.783 2.783 0 0 0-2.78-2.78z" fill="#000000" opacity="1" data-original="#000000" class=""></path><path d="M16.582 19.121a.5.5 0 0 1-.182-.966l.6-.234v-1.158a.5.5 0 0 1 1 0v1.5a.5.5 0 0 1-.318.466l-.918.359a.506.506 0 0 1-.182.033z" fill="#000000" opacity="1" data-original="#000000" class=""></path></g></svg>